<svg width="276" height="266" viewBox="0 0 276 266" fill="none" xmlns="http://www.w3.org/2000/svg">
<g clip-path="url(#clip0_4387_397)">
<path d="M133.68 265.51C60.4799 265.51 0.929932 205.95 0.929932 132.75C0.929932 59.55 60.4799 0 133.68 0C206.88 0 266.43 59.55 266.43 132.75C266.43 205.95 206.88 265.5 133.68 265.5V265.51ZM133.68 12.35C67.2899 12.35 13.2699 66.37 13.2699 132.76C13.2699 199.15 67.2899 253.17 133.68 253.17C200.07 253.17 254.09 199.15 254.09 132.76C254.09 66.37 200.08 12.35 133.68 12.35Z" fill="white"/>
<path d="M255.41 28.95V31.49H250.5V44.32H247.45V31.49H242.53V28.95H255.41ZM272.02 44.32L271.45 35.28C271.39 34.09 271.39 32.62 271.34 30.99H271.17C270.77 32.35 270.32 34.16 269.87 35.57L267.1 44.1H263.93L261.16 35.34C260.88 34.15 260.43 32.34 260.09 30.99H259.92C259.92 32.4 259.86 33.87 259.81 35.28L259.24 44.32H256.3L257.43 28.95H262.01L264.67 36.47C265.01 37.66 265.29 38.79 265.69 40.37H265.75C266.15 38.96 266.48 37.66 266.82 36.53L269.48 28.96H273.89L275.08 44.33H272.03L272.02 44.32Z" fill="white"/>
<path d="M47.2599 163.14L88.8199 161.25C92.5999 181.72 110.86 194.31 138.25 194.31C160.29 194.31 174.77 186.75 174.77 173.22C174.77 161.89 164.7 154.33 146.75 151.81L113.69 148.03C71.8199 143.62 54.4999 123.79 54.4999 99.55C54.4999 68.07 86.6099 46.97 132.58 46.97C181.06 46.97 213.18 69.64 216.33 101.12L175.72 103.01C172.26 82.23 155.57 70.58 131.01 70.58C110.86 70.58 97.3199 79.08 97.3199 91.99C97.3199 102.7 106.14 109.62 121.56 111.51L154.62 115.29C192.71 119.38 220.1 135.76 220.1 165.98C220.1 199.04 184.84 218.56 136.98 218.56C89.1199 218.56 52.6099 197.15 47.2499 163.15L47.2599 163.14Z" fill="white"/>
</g>
<defs>
<clipPath id="clip0_4387_397">
<rect width="274.14" height="265.51" fill="white" transform="translate(0.929932)"/>
</clipPath>
</defs>
</svg>
