<svg width="307" height="51" viewBox="0 0 307 51" fill="none" xmlns="http://www.w3.org/2000/svg">
<g clip-path="url(#clip0_4386_315)">
<path d="M0 30.9976L6.98892 30.6806C7.62402 34.1152 10.6956 36.2272 15.3 36.2272C19.0066 36.2272 21.4402 34.9595 21.4402 32.6861C21.4402 30.7844 19.7457 29.5166 16.729 29.093L11.1719 28.4591C4.131 27.7186 1.21823 24.3906 1.21823 20.3222C1.21823 15.0378 6.61942 11.4995 14.3474 11.4995C22.4997 11.4995 27.9009 15.3028 28.4291 20.5872L21.599 20.9042C21.0159 17.4178 18.2099 15.4613 14.0818 15.4613C10.6927 15.4613 8.41789 16.8876 8.41789 19.0544C8.41789 20.8495 9.89881 22.0135 12.494 22.3305L18.0511 22.9644C24.4569 23.6501 29.0613 26.3989 29.0613 31.4701C29.0613 37.0167 23.1319 40.2928 15.0864 40.2928C7.04089 40.2928 0.900679 36.7056 0 30.9976Z" fill="white"/>
<path d="M31.1484 25.9783C31.1484 17.5762 38.2413 11.4995 48.3018 11.4995C58.3622 11.4995 65.4002 17.4178 65.4002 25.8717C65.4002 34.3256 58.3074 40.3505 48.2469 40.3505C38.1864 40.3505 31.1484 34.4322 31.1484 25.9783ZM57.3519 25.9264C57.3519 20.2732 53.4864 16.2047 48.1949 16.2047C42.9035 16.2047 39.1968 20.2732 39.1968 25.8745C39.1968 31.4759 43.0622 35.4925 48.3537 35.4925C53.6452 35.4925 57.3519 31.4759 57.3519 25.9293V25.9264Z" fill="white"/>
<path d="M119.608 24.3417V39.2959H111.774V25.1888C111.774 20.1176 109.285 17.1037 105.157 17.1037C100.815 17.1037 98.2751 19.9044 98.2751 24.6587V39.2959H90.4403V25.1888C90.4403 20.1176 87.8451 17.1037 83.5063 17.1037C79.1674 17.1037 76.4654 20.1148 76.4654 25.2407V39.2959H68.6306V12.557H76.3586L76.2518 18.6856H76.6213C77.9434 14.5653 81.65 12.0268 86.5749 12.0268C91.8144 12.0268 95.5731 14.4587 97.2676 18.6856H97.3196C98.6966 14.7237 102.666 12.0268 107.802 12.0268C115.108 12.0268 119.606 16.6773 119.606 24.3388L119.608 24.3417Z" fill="white"/>
<path d="M154.654 26.6122H130.622C130.78 32.1588 134.432 35.4349 139.409 35.4349C143.537 35.4349 146.768 33.0578 147.455 29.7817L154.495 30.2052C153.65 36.1235 147.455 40.3505 139.092 40.3505C129.562 40.3505 122.628 34.8039 122.628 25.8717C122.628 16.9395 129.669 11.4995 138.881 11.4995C148.093 11.4995 154.761 16.7291 154.761 24.8142C154.761 25.2896 154.761 25.9754 154.654 26.6093V26.6122ZM146.978 22.9672C146.978 18.7403 143.589 15.5708 138.933 15.5708C134.276 15.5708 131.046 18.6366 130.674 23.022L146.978 22.9701V22.9672Z" fill="white"/>
<path d="M160.266 28.8856V17.3659H155.13V12.5569H158.043C160.003 12.5569 161.115 11.341 161.115 9.17421V5.47455H169.056V6.63573C169.056 9.75336 168.104 11.7617 166.198 12.289V12.554H176.311V17.363H168.052V27.8771C168.052 31.7871 169.905 34.0057 173.239 34.0057C174.033 34.0057 175.199 33.8991 176.311 33.6369L176.204 39.1835C174.457 39.5005 172.656 39.7108 170.592 39.7108C164.504 39.7108 160.269 36.3281 160.269 28.8798L160.266 28.8856Z" fill="white"/>
<path d="M209.29 24.3417V39.2959H201.455V25.1888C201.455 20.1176 198.86 17.1037 194.521 17.1037C190.445 17.1037 187.849 19.6393 187.48 24.0247V39.2959H179.645V1.78064H187.48V18.6884H187.639C188.909 14.5681 192.667 12.0296 197.592 12.0296C204.844 12.0296 209.292 16.6801 209.292 24.3417H209.29Z" fill="white"/>
<path d="M212.306 4.26151C212.306 1.77778 214.477 0.141174 217.704 0.141174C220.932 0.141174 223.106 1.78067 223.106 4.26151C223.106 6.74236 220.99 8.38185 217.704 8.38185C214.419 8.38185 212.306 6.74524 212.306 4.26151ZM213.842 12.5569H221.677V39.293H213.842V12.5569Z" fill="white"/>
<path d="M256.139 24.3417V39.2959H248.305V25.1888C248.305 20.1176 245.709 17.1037 241.371 17.1037C237.032 17.1037 234.33 20.1148 234.33 25.2407V39.2959H226.495V12.557H234.223L234.116 18.6856H234.486C235.808 14.5653 239.514 12.0268 244.439 12.0268C251.691 12.0268 256.139 16.6773 256.139 24.3388V24.3417Z" fill="white"/>
<path d="M280.492 32.6889C289.28 32.6889 294.467 35.8584 294.467 41.091C294.467 47.3262 287.002 50.8674 275.409 50.8674C264.875 50.8674 258.838 47.8564 258.838 43.0474C258.838 40.5118 260.744 38.4517 263.656 37.6045C261.168 36.5471 259.791 34.8039 259.791 32.5852C259.791 29.6261 262.331 27.7244 266.462 27.6178V27.3527C263.287 26.033 261.168 23.6012 261.168 20.642C261.168 15.0406 267.363 11.5023 276.572 11.5023C279.961 11.5023 282.926 11.9778 285.307 12.822C286.26 8.48844 289.594 6.42827 293.777 6.53488L293.936 11.5023C290.813 11.3439 288.907 12.3466 288.165 14.2511C290.547 15.784 291.872 17.9508 291.872 20.5383C291.872 25.9293 286.049 29.5195 277.048 29.5195C273.607 29.5195 270.801 28.8337 268.472 28.8337C266.673 28.8337 265.614 29.5195 265.614 30.6288C265.614 31.8966 267.308 32.6889 270.007 32.6889H280.489H280.492ZM286.58 42.4106C286.58 40.0854 284.251 38.711 280.492 38.711H270.062C269.534 38.711 269.003 38.711 268.475 38.6591C267.097 39.6618 266.514 40.9844 266.514 42.1456C266.514 45.2113 270.062 47.0583 276.309 47.0583C282.556 47.0583 286.58 45.3151 286.58 42.4078V42.4106ZM268.951 20.4835C268.951 23.6011 272.074 25.7679 276.679 25.7679C281.021 25.7679 284.089 23.7078 284.089 20.5901C284.089 17.4725 281.072 15.3057 276.465 15.3057C271.858 15.3057 268.948 17.3659 268.948 20.4835H268.951Z" fill="white"/>
<path d="M299.753 6.50323V7.3273H298.159V11.4793H297.169V7.3273H295.576V6.50323H299.753ZM305.137 11.4765L304.952 8.55188C304.935 8.16866 304.935 7.69324 304.914 7.16307H304.86C304.733 7.60103 304.585 8.18883 304.438 8.64408L303.54 11.4044H302.513L301.615 8.57205C301.522 8.18883 301.378 7.60391 301.266 7.16307H301.211C301.211 7.6212 301.193 8.09662 301.173 8.55188L300.988 11.4765H300.036L300.402 6.50323H301.886L302.746 8.9351C302.856 9.31832 302.949 9.68425 303.076 10.1971H303.093C303.22 9.739 303.33 9.31832 303.442 8.95527L304.302 6.50612H305.731L306.115 11.4793H305.125L305.137 11.4765Z" fill="white"/>
</g>
<defs>
<clipPath id="clip0_4386_315">
<rect width="306.127" height="50.7234" fill="white" transform="translate(0 0.141174)"/>
</clipPath>
</defs>
</svg>
