<svg width="42" height="48" viewBox="0 0 42 48" fill="none" xmlns="http://www.w3.org/2000/svg">
<path d="M19.6096 22.9234L0.179199 44.0118C0.181024 44.0156 0.181024 44.0212 0.182849 44.0249C0.779613 46.3148 2.82358 48 5.25079 48C6.22167 48 7.13233 47.7313 7.91341 47.261L7.97546 47.2236L29.8459 34.3186L19.6096 22.9234Z" fill="#EA4335"/>
<path d="M39.2661 19.3324L39.2478 19.3193L29.8055 13.7225L19.1677 23.4026L29.8438 34.3164L39.2351 28.7755C40.8812 27.8648 41.9999 26.09 41.9999 24.0446C41.9999 22.0104 40.8976 20.245 39.2661 19.3324Z" fill="#FBBC04"/>
<path d="M0.178847 3.98662C0.0620489 4.42705 0 4.88988 0 5.36764V42.6327C0 43.1104 0.0620489 43.5733 0.180672 44.0118L20.2772 23.4627L0.178847 3.98662Z" fill="#4285F4"/>
<path d="M19.7531 23.9998L29.8086 13.7187L7.96378 0.767014C7.16992 0.279924 6.24283 -9.53674e-06 5.25188 -9.53674e-06C2.82467 -9.53674e-06 0.777055 1.68894 0.180291 3.98068C0.180291 3.98254 0.178467 3.98441 0.178467 3.98627L19.7531 23.9998Z" fill="#34A853"/>
</svg>
